<svg preserveAspectRatio="xMidYMid meet" viewBox="124.5184 245.3504 788.48 542.72" xmlns="http://www.w3.org/2000/svg" version="1.0" style="max-height: 500px" width="788.48" height="542.72">

<g stroke="none" fill="#000000" transform="translate(0.000000,1024.000000) scale(0.100000,-0.100000)">
<path d="M3160 7691 c-48 -15 -87 -40 -120 -77 -62 -72 -64 -79 -68 -409 -4&#xA;-313 2 -376 36 -394 10 -5 49 -14 88 -19 125 -17 218 -76 292 -184 54 -79 73&#xA;-142 79 -260 5 -91 2 -117 -17 -180 -57 -188 -186 -301 -374 -328 -106 -16&#xA;-101 2 -101 -378 0 -320 0 -328 23 -377 28 -60 64 -100 117 -128 l40 -22 1970&#xA;0 c1841 0 1972 1 2001 17 57 31 97 71 120 123 23 49 24 55 24 381 0 392 8 365&#xA;-118 388 -188 34 -323 162 -367 348 -42 177 5 356 127 480 67 69 140 106 241&#xA;120 48 7 80 17 95 31 l23 21 -3 341 c-3 329 -4 341 -25 381 -28 53 -91 107&#xA;-142 122 -44 14 -3897 16 -3941 3z m1480 -746 c102 -57 385 -214 630 -349 245&#xA;-136 453 -256 463 -267 23 -28 22 -70 -3 -102 -11 -13 -84 -57 -162 -97 -79&#xA;-40 -147 -76 -153 -80 -5 -4 -91 -49 -190 -100 -99 -51 -209 -109 -245 -128&#xA;-338 -179 -579 -302 -592 -302 -8 0 -27 9 -42 21 -20 15 -26 29 -26 57 0 37&#xA;37 93 279 422 166 227 175 242 156 286 -7 18 -108 175 -224 349 -147 220 -211&#xA;324 -211 343 0 36 24 70 53 74 27 5 37 0 267 -127z"/>
<path d="M1744 4301 c-161 -46 -276 -168 -304 -321 -22 -120 6 -223 81 -305&#xA;72 -78 141 -110 359 -165 135 -34 186 -54 218 -83 92 -84 56 -219 -72 -272&#xA;-78 -33 -215 -16 -287 36 -36 25 -77 88 -86 129 -3 17 -8 32 -12 34 -6 4 -173&#xA;-34 -216 -49 -11 -4 -25 -9 -32 -10 -9 -3 -8 -17 3 -57 55 -186 211 -301 445&#xA;-328 263 -31 497 91 561 292 30 95 22 224 -17 296 -62 114 -154 170 -385 232&#xA;-194 52 -223 64 -260 106 -26 30 -30 43 -30 91 0 51 3 58 38 93 42 43 92 60&#xA;171 60 111 0 193 -51 219 -138 7 -23 14 -42 16 -42 12 0 230 51 234 55 9 9&#xA;-10 75 -38 133 -52 104 -164 188 -290 218 -79 19 -242 16 -316 -5z"/>
<path d="M7064 4310 c-230 -49 -441 -245 -521 -485 -24 -72 -27 -95 -27 -225&#xA;0 -133 2 -152 27 -225 92 -264 310 -436 587 -463 148 -15 256 5 380 69 98 51&#xA;168 113 229 205 72 108 93 179 99 344 l4 135 -323 -1 c-292 -1 -324 -3 -323&#xA;-18 0 -9 1 -62 2 -117 l2 -101 43 5 c23 3 107 7 187 9 l145 3 -4 -25 c-6 -46&#xA;-59 -136 -105 -178 -76 -70 -123 -86 -251 -87 -103 0 -114 2 -175 31 -254 120&#xA;-326 487 -145 733 114 155 325 201 498 109 55 -30 74 -48 147 -147 15 -21 15&#xA;-20 143 11 100 24 127 35 127 48 0 23 -70 129 -121 185 -60 65 -169 134 -257&#xA;163 -62 20 -101 26 -202 28 -69 2 -143 -1 -166 -6z"/>
<path d="M2638 4053 l-3 -138 -72 -3 -73 -3 0 -99 0 -100 75 0 75 0 0 -285 c0&#xA;-262 2 -289 20 -339 44 -118 136 -170 295 -169 50 0 108 6 128 12 l37 13 0&#xA;102 0 103 -68 -5 c-83 -5 -122 11 -146 62 -13 28 -16 72 -16 270 l0 236 115 0&#xA;115 0 0 100 0 100 -115 0 -115 0 0 140 0 140 -125 0 -124 0 -3 -137z"/>
<path d="M3615 3933 c-100 -14 -220 -70 -263 -122 -37 -46 -64 -97 -77 -148&#xA;-8 -31 -14 -57 -12 -58 1 -1 57 -5 124 -8 l122 -6 6 29 c16 71 77 110 172 109&#xA;110 -1 162 -39 177 -128 11 -68 13 -67 -172 -74 -172 -7 -237 -18 -308 -55&#xA;-64 -33 -100 -68 -128 -124 -35 -69 -37 -195 -5 -262 57 -123 177 -182 351&#xA;-174 107 5 182 33 235 88 l31 32 9 -43 9 -44 114 -3 115 -3 -2 253 c-6 492 -5&#xA;487 -34 548 -15 30 -41 70 -60 88 -83 83 -248 126 -404 105z m243 -641 c-4&#xA;-82 -35 -129 -106 -164 -67 -32 -174 -32 -219 0 -44 31 -61 88 -42 139 26 67&#xA;93 89 283 92 l88 1 -4 -68z"/>
<path d="M4603 3925 c-211 -47 -352 -241 -353 -480 -1 -321 265 -545 555 -470&#xA;71 19 128 53 172 103 l33 37 0 -85 c0 -68 -5 -95 -24 -135 -49 -105 -134 -158&#xA;-256 -158 -90 0 -155 28 -213 93 l-38 41 -99 -52 c-55 -28 -100 -56 -100 -63&#xA;0 -26 75 -107 139 -151 97 -66 164 -87 301 -92 88 -4 130 -1 180 12 182 47&#xA;313 176 349 343 7 35 11 220 11 552 l0 500 -120 0 -120 0 0 -61 0 -60 -55 45&#xA;c-98 80 -234 110 -362 81z m243 -226 c106 -40 164 -129 164 -254 0 -81 -23&#xA;-145 -69 -193 -112 -115 -288 -104 -378 23 -25 35 -53 126 -53 170 0 87 45&#xA;183 106 224 78 54 144 62 230 30z"/>
<path d="M5795 3930 c-202 -42 -346 -188 -390 -395 -18 -88 -19 -142 0 -228&#xA;33 -158 126 -277 272 -349 78 -39 89 -42 189 -46 65 -3 128 0 163 8 123 27&#xA;252 123 305 228 14 28 26 55 26 60 0 5 -42 15 -92 21 -51 6 -106 14 -123 17&#xA;-25 4 -33 0 -47 -25 -26 -48 -92 -89 -153 -96 -143 -18 -247 58 -290 213 l-6&#xA;22 365 0 366 0 0 70 c0 93 -15 161 -56 247 -42 88 -117 167 -194 206 -98 48&#xA;-234 67 -335 47z m212 -225 c29 -17 53 -43 73 -78 52 -91 62 -87 -190 -87&#xA;-253 0 -244 -4 -187 90 25 42 44 61 87 83 49 26 62 28 114 23 37 -4 76 -16&#xA;103 -31z"/>
<path d="M8383 3930 c-29 -6 -80 -21 -114 -35 -333 -135 -413 -596 -148 -852&#xA;161 -156 456 -180 648 -52 154 103 231 251 231 445 0 219 -149 413 -367 479&#xA;-63 19 -185 26 -250 15z m205 -247 c117 -48 183 -196 148 -331 -35 -139 -126&#xA;-212 -259 -212 -153 1 -248 100 -255 268 -5 93 9 141 59 203 70 89 196 118&#xA;307 72z"/>
</g>
</svg>